<svg xmlns="http://www.w3.org/2000/svg" viewBox="0 0 320 320" role="img" aria-labelledby="title desc">
  <title id="title">Inovar Elevada Materiais de Construção</title>
  <desc id="desc">Logo circular laranja da Inovar Elevada com casa, ferramentas, nome e telefone.</desc>
  <circle cx="160" cy="160" r="157" fill="#ff6422"/>
  <circle cx="160" cy="160" r="154" fill="none" stroke="#d74f1a" stroke-width="2"/>
  <g fill="#fff4e8" stroke="#fff4e8" stroke-linecap="round" stroke-linejoin="round">
    <rect x="62" y="72" width="42" height="16" rx="4" stroke="none"/>
    <path d="M104 80h16v19M120 99l-10 12" fill="none" stroke-width="7"/>
    <path d="M130 60h35c8 0 14 6 14 14v5h-17v-5h-10v47h-18V76h-12v-8c0-4 4-8 8-8Z" stroke="none"/>
    <path d="M198 60c9 0 16 7 16 16 0 6-3 11-8 14v30h-18V90c-5-3-8-8-8-14 0-6 3-11 8-14v13h10V62c0-1 0-2 0-2Z" stroke="none"/>
    <path d="M231 70h32v24h-32zM234 94h26l-4 10h-18z" stroke="none"/>
    <path d="M247 104v25" fill="none" stroke-width="7"/>
  </g>
  <path d="M77 137 160 95l83 42v21l-83-42-83 42Z" fill="#fff4e8"/>
  <rect x="139" y="120" width="42" height="51" rx="2" fill="#fff4e8"/>
  <path d="M160 120v51M139 145h42" stroke="#ff6422" stroke-width="5"/>
  <g text-anchor="middle" font-family="Arial Black, Impact, Arial, sans-serif" font-weight="900" fill="#fff4e8" stroke="#4a2119" stroke-width="3.4" paint-order="stroke fill">
    <text x="160" y="211" font-size="48" letter-spacing="-2">INOVAR</text>
    <text x="160" y="254" font-size="48" letter-spacing="-2">ELEVADA</text>
  </g>
  <text x="160" y="278" text-anchor="middle" font-family="Arial, Helvetica, sans-serif" font-weight="700" font-size="15" letter-spacing="3" fill="#fff4e8" stroke="#6b2b1c" stroke-width="1" paint-order="stroke fill">MATERIAIS DE CONSTRUÇÃO</text>
  <text x="160" y="299" text-anchor="middle" font-family="Arial, Helvetica, sans-serif" font-size="14" fill="#fff4e8" stroke="#6b2b1c" stroke-width=".8" paint-order="stroke fill">(54) 9 8155-6570</text>
</svg>