<svg xmlns="http://www.w3.org/2000/svg" viewBox="0 0 800 600"><defs><linearGradient id="g" x1="0" y1="0" x2="1" y2="1"><stop stop-color="#f7eee5"/><stop offset="1" stop-color="#fffdf9"/></linearGradient><filter id="s"><feDropShadow dx="0" dy="18" stdDeviation="17" flood-color="#5b341e" flood-opacity=".13"/></filter></defs><rect width="800" height="600" rx="48" fill="url(#g)"/><path d="M610 70c72 33 104 117 71 189s-117 104-189 71-104-117-71-189 117-104 189-71Z" fill="#f36b21" opacity=".07"/><g filter="url(#s)" transform="translate(120 150)"><g transform="rotate(-18 150 130)"><rect x="85" y="55" width="56" height="245" rx="24" fill="#272824"/><path d="m94 265 38 0-19 54Z" fill="#272824"/><path d="M87 82h52" stroke="#f36b21" stroke-width="16" stroke-linecap="round"/></g><g transform="translate(210 -5) rotate(15 150 130)"><rect x="85" y="55" width="56" height="245" rx="24" fill="#f36b21"/><path d="m94 265 38 0-19 54Z" fill="#f36b21"/><path d="M87 82h52" stroke="#fff" stroke-width="16" stroke-linecap="round"/></g><g transform="translate(390 75)"><polygon points="85,0 145,35 145,105 85,140 25,105 25,35" fill="#fff" stroke="#272824" stroke-width="20"/><circle cx="85" cy="70" r="27" fill="#f36b21"/></g></g><text x="70" y="85" fill="#1d1e1b" font-family="Arial,sans-serif" font-size="26" font-weight="700">FERRAGENS &amp; FIXAÇÃO</text><text x="70" y="118" fill="#776d64" font-family="Arial,sans-serif" font-size="17">Parafusos • buchas • acessórios</text></svg>