<svg xmlns="http://www.w3.org/2000/svg" viewBox="0 0 460 360"><defs><linearGradient id="g" x1="0" y1="0" x2="1" y2="1"><stop stop-color="#353631"/><stop offset="1" stop-color="#1f201d"/></linearGradient><filter id="s" x="-30%" y="-30%" width="170%" height="190%"><feDropShadow dx="0" dy="18" stdDeviation="16" flood-color="#2f2118" flood-opacity=".2"/></filter></defs><rect width="460" height="360" rx="48" fill="#f5f0e8"/><circle cx="390" cy="62" r="78" fill="#f36b21" opacity=".08"/><g transform="translate(65 70)" filter="url(#s)"><path d="M52 67h115v48h-67v92H52Z" fill="#fff" stroke="#d4cdc4" stroke-width="5"/><path d="M167 67h94v48h-94" fill="#fff" stroke="#d4cdc4" stroke-width="5"/><circle cx="191" cy="91" r="54" fill="url(#g)"/><circle cx="191" cy="91" r="30" fill="#f36b21"/><path d="M191 46v90M146 91h90" stroke="#fff" stroke-width="10" stroke-linecap="round"/><path d="M261 67h57v48h-57" fill="#fff" stroke="#d4cdc4" stroke-width="5"/><rect x="317" y="57" width="35" height="68" rx="16" fill="#f36b21"/><path d="M70 206h128" stroke="#f36b21" stroke-width="15" stroke-linecap="round"/><path d="M70 238h92" stroke="#20211e" stroke-opacity=".22" stroke-width="10" stroke-linecap="round"/></g><g transform="translate(314 233)"><circle cx="38" cy="38" r="38" fill="#fff"/><path d="M38 16c14 19 20 28 20 38a20 20 0 0 1-40 0c0-10 6-19 20-38Z" fill="#2bb9dd"/></g></svg>